<?xml version="1.0" standalone="no"?>
<!DOCTYPE svg PUBLIC "-//W3C//DTD SVG 20010904//EN"
 "http://www.w3.org/TR/2001/REC-SVG-20010904/DTD/svg10.dtd">
<svg version="1.0" xmlns="http://www.w3.org/2000/svg"
 width="1475.000000pt" height="939.000000pt" viewBox="0 0 1475.000000 939.000000"
 preserveAspectRatio="xMidYMid meet">
<metadata>
Created by potrace 1.16, written by Peter Selinger 2001-2019
</metadata>
<g transform="translate(0.000000,939.000000) scale(0.100000,-0.100000)"
fill="#000000" stroke="none">
<path d="M1267 9384 c-3 -3 8 -33 24 -67 32 -69 34 -79 17 -110 -15 -29 -20
-135 -7 -159 6 -11 8 -27 5 -35 -6 -14 -9 -14 -26 2 -11 10 -20 22 -20 27 0 5
-9 22 -21 37 -24 33 -22 67 5 64 11 -1 15 4 12 14 -3 8 -6 17 -6 20 0 4 -9 -2
-20 -12 -11 -10 -20 -29 -20 -42 0 -19 -5 -23 -32 -23 -18 0 -57 10 -88 21
-164 64 -185 75 -244 132 -34 31 -66 55 -72 53 -10 -4 -34 -99 -34 -137 0 -10
7 -25 16 -34 14 -14 16 -31 11 -109 -6 -107 5 -180 33 -218 26 -35 26 -36 -12
-40 -28 -2 -34 -8 -36 -30 -3 -23 1 -28 17 -28 12 0 21 -7 21 -15 0 -29 -30
-75 -49 -75 -26 0 -35 -40 -14 -62 9 -11 23 -16 30 -13 26 9 92 -18 95 -40 2
-15 12 -21 36 -23 25 -3 38 -12 58 -42 24 -35 26 -47 22 -111 l-4 -72 45 -29
c52 -32 114 -38 143 -11 15 13 23 14 44 4 15 -6 35 -9 45 -6 11 4 19 2 19 -4
0 -6 7 -11 16 -11 8 0 36 -12 60 -26 39 -23 52 -26 98 -20 43 5 56 3 67 -10
11 -13 23 -15 64 -9 45 7 126 8 293 5 48 -1 226 -39 425 -91 42 -11 82 -17 87
-14 6 3 10 32 10 63 0 75 36 248 162 775 23 96 37 172 32 176 -5 5 -45 16 -89
26 -93 19 -524 128 -735 185 -80 22 -179 48 -220 59 -41 10 -104 28 -140 39
-93 27 -116 32 -123 26z"/>
<path d="M2561 8862 c-24 -103 -50 -213 -58 -245 -54 -224 -102 -478 -104
-540 -2 -78 8 -107 48 -144 26 -24 33 -97 11 -106 -7 -2 -35 -38 -63 -78 -27
-41 -53 -75 -57 -77 -5 -2 -8 -13 -8 -25 -1 -28 -23 -57 -43 -57 -24 0 -79
-77 -87 -121 -7 -36 -5 -39 15 -39 38 0 48 -37 26 -95 -22 -56 -34 -94 -50
-145 -13 -44 -131 -530 -131 -540 0 -7 40 -19 140 -40 30 -6 138 -29 240 -51
102 -22 217 -46 255 -53 39 -8 136 -28 216 -45 138 -28 281 -53 494 -85 50 -8
111 -17 136 -21 l46 -7 28 169 c15 92 33 215 40 273 7 58 26 172 41 254 20
114 24 153 15 165 -6 9 -18 33 -27 54 -19 44 -37 47 -61 11 -15 -24 -20 -26
-62 -19 -25 4 -89 8 -141 9 -52 1 -101 5 -108 10 -9 5 -15 1 -19 -13 -15 -60
-80 13 -69 78 5 34 2 42 -37 84 -35 39 -46 60 -65 134 -12 48 -22 109 -22 134
0 25 -3 48 -6 52 -3 3 -27 -8 -52 -24 -25 -16 -51 -29 -56 -29 -6 0 -24 16
-39 35 -33 41 -33 41 36 215 25 63 49 127 52 143 7 25 5 27 -24 27 -24 0 -31
4 -31 20 0 11 -6 20 -13 20 -8 0 -19 11 -25 25 -6 14 -16 25 -21 25 -5 0 -12
15 -15 33 -11 56 -54 137 -78 146 -13 5 -32 25 -42 45 -17 32 -18 40 -6 77 13
38 12 44 -17 103 -30 60 -31 65 -18 107 29 96 67 281 59 289 -5 4 -47 16 -93
25 -47 9 -90 19 -95 21 -7 2 -29 -72 -55 -184z"/>
<path d="M2830 8994 c0 -9 -40 -197 -60 -285 -10 -42 -9 -51 16 -102 26 -52
27 -61 18 -106 -12 -59 2 -95 39 -105 19 -4 32 -24 57 -83 48 -116 63 -143 78
-143 8 0 16 -9 19 -20 4 -13 14 -20 29 -20 48 0 43 -37 -25 -202 -61 -147 -63
-159 -35 -193 l23 -29 46 32 c25 18 52 32 59 32 16 0 26 -31 26 -83 0 -21 10
-76 21 -122 18 -72 28 -91 66 -132 41 -43 44 -50 39 -85 -3 -20 -1 -48 6 -62
11 -26 11 -26 26 -5 11 16 20 19 45 12 18 -4 70 -8 117 -9 47 -1 102 -5 122
-9 32 -6 39 -4 45 11 9 25 23 34 51 34 18 0 28 -11 45 -47 l21 -48 13 65 c6
36 12 75 13 88 0 27 21 28 100 7 30 -8 74 -15 97 -15 24 0 98 -9 165 -20 68
-10 206 -29 308 -40 182 -20 253 -31 357 -51 29 -6 117 -14 195 -19 150 -9
309 -25 418 -40 96 -14 107 -13 115 13 4 12 11 85 16 162 12 176 24 329 38
470 6 61 17 187 25 280 8 94 21 232 27 307 7 76 10 140 7 143 -3 3 -56 10
-119 16 -137 12 -1018 118 -1039 124 -8 3 -105 16 -215 30 -212 27 -405 58
-625 100 -74 14 -171 32 -215 40 -126 21 -541 104 -562 112 -7 3 -13 1 -13 -3z"/>
<path d="M14130 8863 c-24 -19 -49 -42 -56 -51 -18 -24 -64 -7 -77 29 -7 16
-18 28 -25 27 -7 -2 -38 -66 -68 -143 -52 -132 -55 -144 -49 -206 4 -52 2 -69
-10 -79 -20 -17 -20 -113 0 -134 8 -8 15 -21 15 -30 0 -16 -30 -87 -41 -96
-17 -14 -29 -54 -35 -114 -4 -36 -9 -66 -11 -66 -2 0 -14 5 -25 11 -19 10 -20
9 -14 -17 4 -16 47 -156 96 -311 50 -156 90 -292 90 -303 0 -14 11 -26 34 -35
22 -9 36 -23 38 -37 7 -50 26 -25 43 59 10 48 22 94 28 100 5 7 7 23 4 35 -4
13 2 35 14 55 21 34 33 40 44 23 7 -11 28 -4 78 27 27 17 37 30 37 48 0 20 5
25 24 25 13 0 29 6 35 14 14 17 21 145 9 152 -11 7 10 34 27 34 7 0 15 -10 19
-23 5 -20 11 -23 36 -19 16 2 28 8 25 12 -9 15 18 60 36 60 9 0 19 7 23 15 7
20 36 19 51 -1 10 -14 21 -7 88 55 42 39 81 71 87 71 13 0 46 80 41 100 -6 28
-63 90 -82 90 -11 0 -18 -4 -14 -9 3 -5 0 -13 -6 -17 -20 -12 -54 35 -64 89
l-10 52 -50 3 -50 3 -74 244 -74 244 -46 20 c-80 34 -92 33 -141 -6z"/>
<path d="M7740 8569 l0 -72 -243 5 -244 4 13 -42 c8 -28 11 -74 7 -137 -6
-102 6 -179 38 -235 15 -25 21 -70 30 -215 8 -143 16 -198 35 -257 18 -56 24
-97 24 -163 0 -91 0 -92 -55 -131 -19 -14 -18 -16 33 -66 l52 -51 0 -320 0
-319 183 0 c247 1 919 17 1041 26 l98 7 -7 51 c-7 60 -27 83 -106 132 -31 18
-69 52 -84 74 -15 22 -34 40 -43 40 -8 0 -25 11 -38 25 -13 14 -33 25 -46 25
-13 0 -37 13 -54 28 -29 25 -31 33 -37 117 -6 72 -4 96 9 120 20 39 11 73 -22
81 -22 6 -25 11 -21 33 13 63 38 101 87 133 l50 33 0 104 0 105 34 30 c19 17
65 58 103 91 38 33 85 80 103 105 53 71 82 100 125 128 45 29 151 82 164 82 4
0 32 14 62 31 l54 31 -47 -6 c-41 -5 -49 -3 -59 15 -10 20 -18 21 -101 17 -87
-4 -90 -4 -99 19 -10 26 -9 26 -76 -19 -43 -29 -59 -32 -112 -22 -23 5 -31 12
-32 28 0 11 -3 16 -5 9 -7 -16 -62 16 -70 40 -4 12 -12 15 -30 11 -17 -4 -49
7 -111 39 -114 57 -157 65 -188 32 -30 -33 -105 -36 -105 -5 0 17 -7 20 -50
20 -27 0 -50 5 -50 10 0 6 -17 10 -38 10 -54 0 -67 20 -87 128 -9 50 -20 94
-24 96 -3 2 -18 6 -33 10 l-28 6 0 -71z"/>
<path d="M5640 8540 c0 -23 -4 -83 -10 -133 -5 -51 -16 -175 -25 -277 -9 -102
-21 -234 -26 -295 -6 -60 -13 -155 -16 -211 l-4 -100 238 -18 c131 -9 315 -21
408 -27 94 -5 238 -14 320 -19 83 -4 309 -12 503 -15 l352 -7 0 48 c0 27 -11
83 -24 124 -20 60 -27 113 -35 259 -9 149 -15 190 -30 215 -31 52 -44 130 -39
235 4 65 1 110 -8 142 l-14 46 -352 6 c-194 4 -414 11 -488 17 -74 5 -250 16
-390 25 -140 8 -279 18 -307 21 l-53 6 0 -42z"/>
<path d="M751 8497 c-36 -13 -35 -9 -101 -212 -18 -55 -47 -130 -65 -166 -18
-36 -47 -103 -63 -150 -53 -149 -117 -282 -185 -387 -37 -57 -67 -105 -67
-108 0 -3 -8 -14 -19 -25 -13 -14 -20 -43 -25 -97 -4 -42 -12 -98 -17 -124
-17 -76 2 -100 98 -127 43 -12 107 -31 143 -42 86 -25 156 -45 205 -58 36 -9
289 -81 455 -130 36 -11 128 -34 205 -53 77 -18 142 -36 145 -39 3 -4 32 -12
65 -19 33 -6 92 -20 130 -31 64 -17 358 -79 376 -79 4 0 26 78 49 173 92 381
113 463 127 483 7 11 14 38 16 59 2 34 -1 39 -23 45 -23 6 -25 10 -22 51 4 51
57 131 100 151 17 8 28 24 33 44 3 17 14 40 25 50 10 11 37 45 58 77 22 31 43
57 48 57 4 0 8 14 8 31 0 20 -9 39 -29 57 -15 15 -31 38 -34 52 -6 24 -16 28
-149 59 -79 18 -186 44 -238 56 -65 16 -133 23 -215 25 -147 3 -146 3 -222 -5
-46 -6 -67 -4 -79 5 -9 8 -35 13 -62 11 -35 -2 -59 4 -92 23 -25 13 -63 28
-85 32 -22 3 -47 10 -56 15 -11 6 -21 4 -29 -6 -8 -10 -31 -15 -66 -15 -45 0
-62 6 -109 38 -39 26 -53 41 -48 52 4 8 8 40 10 70 5 76 -21 120 -72 120 -29
0 -36 4 -41 25 -7 28 -28 31 -83 12z"/>
<path d="M9419 8027 c-20 -12 -69 -56 -110 -98 -89 -91 -140 -126 -197 -135
-25 -4 -55 -18 -75 -35 -17 -16 -50 -36 -72 -45 l-40 -17 35 -38 c33 -35 42
-39 150 -59 63 -12 133 -30 155 -40 45 -20 143 -40 198 -40 33 0 38 -3 43 -29
5 -24 13 -30 41 -36 39 -7 36 -3 53 -110 7 -49 18 -87 29 -98 17 -17 19 -15
49 51 18 38 32 74 32 80 0 6 11 36 24 67 24 54 40 68 49 43 3 -10 16 -7 51 10
42 20 49 21 62 7 20 -19 34 -11 34 20 0 31 20 41 101 49 56 6 68 11 79 32 16
29 41 30 136 8 56 -13 72 -13 98 -2 17 7 45 13 61 14 17 0 49 1 73 2 l43 2
-36 31 c-33 29 -35 35 -35 91 0 68 9 65 -98 27 -48 -17 -69 -20 -95 -13 -29 9
-32 14 -37 56 l-5 47 -60 -24 c-34 -14 -80 -25 -107 -25 -61 0 -93 -13 -149
-60 -55 -46 -111 -61 -138 -36 -13 12 -21 14 -26 7 -3 -6 -24 -11 -45 -11 -32
0 -43 6 -69 37 -17 21 -31 43 -31 49 0 7 -19 19 -42 27 -83 30 -94 30 -132 -3
-22 -20 -37 -27 -41 -20 -11 18 36 130 61 147 13 8 26 24 30 35 3 11 21 26 40
34 19 8 34 16 34 19 0 15 -89 2 -121 -18z"/>
<path d="M13653 7977 c-4 -6 -9 -50 -11 -97 -3 -70 -1 -88 12 -99 10 -9 16
-29 16 -56 0 -37 -5 -47 -42 -82 l-43 -39 0 -99 c-1 -55 -5 -148 -9 -207 -7
-85 -6 -108 4 -108 9 0 11 -18 9 -67 -4 -60 -2 -68 15 -71 24 -5 286 58 286
69 0 13 82 89 96 89 15 0 28 35 19 50 -3 5 -13 10 -21 10 -8 0 -14 10 -14 23
0 15 -11 27 -32 37 -27 13 -33 24 -49 86 -9 38 -42 146 -72 240 -29 93 -65
205 -78 248 -22 71 -27 79 -52 82 -14 1 -30 -3 -34 -9z"/>
<path d="M13411 7825 c-125 -31 -206 -56 -209 -64 -7 -22 19 -124 36 -144 11
-13 16 -42 17 -107 2 -71 6 -96 24 -126 13 -22 21 -49 19 -67 -3 -26 1 -32 22
-37 22 -5 28 -17 52 -115 15 -61 28 -120 28 -132 0 -25 30 -31 72 -14 13 6 39
12 58 15 l35 6 -2 68 c-1 37 -5 90 -9 117 -3 28 -1 101 6 164 10 84 11 126 3
165 l-11 51 49 43 c53 47 62 79 35 118 -8 11 -16 41 -18 65 l-3 45 -204 -51z"/>
<path d="M8766 7804 c-9 -8 -58 -34 -109 -56 -74 -32 -100 -39 -134 -35 -32 3
-43 1 -43 -9 0 -8 -4 -14 -10 -14 -6 0 -10 -41 -10 -102 l0 -103 -52 -35 c-41
-28 -56 -46 -70 -83 -10 -26 -13 -47 -8 -47 20 0 50 -41 50 -67 0 -16 -7 -37
-15 -48 -12 -15 -14 -37 -9 -100 6 -67 11 -84 32 -107 15 -17 36 -28 51 -28
16 0 34 -10 45 -25 10 -14 27 -25 36 -25 10 0 30 -18 45 -41 16 -22 58 -60 94
-83 36 -24 73 -52 82 -62 9 -10 22 -55 28 -99 8 -56 18 -86 33 -102 19 -21 21
-27 10 -56 -16 -45 -15 -80 4 -121 14 -27 26 -37 60 -45 26 -7 48 -19 55 -33
11 -20 15 -21 138 -14 165 8 415 24 519 32 l84 7 -5 36 c-2 20 -14 77 -25 128
-20 88 -20 95 -5 160 9 39 16 100 14 142 -1 56 2 79 16 100 11 17 18 48 19 91
1 52 10 84 41 155 78 177 83 230 11 120 -25 -39 -59 -87 -77 -109 -17 -21 -31
-47 -31 -56 0 -10 -9 -20 -20 -23 -11 -3 -20 -13 -20 -22 0 -22 -34 -15 -38 8
-5 24 36 127 60 150 22 22 22 26 -1 51 -18 21 -41 113 -41 165 0 22 -7 29 -42
41 -31 11 -43 20 -43 35 0 14 -8 21 -25 23 -83 8 -179 28 -205 42 -16 9 -86
27 -153 41 -111 21 -126 26 -144 51 -11 16 -42 39 -71 51 -41 20 -56 22 -79
13 -41 -15 -44 -2 -14 56 21 40 24 53 14 60 -18 11 -25 10 -42 -8z"/>
<path d="M13070 7736 c-41 -13 -111 -29 -155 -36 -44 -6 -91 -18 -104 -24 -32
-18 -123 -126 -156 -189 -15 -29 -52 -77 -82 -108 -65 -67 -69 -98 -15 -114
33 -9 39 -23 22 -54 -6 -13 -5 -31 7 -60 18 -45 8 -71 -28 -71 -11 0 -19 -3
-19 -7 0 -5 -22 -32 -49 -60 -43 -46 -54 -53 -88 -53 -21 -1 -56 -9 -78 -20
-45 -22 -71 -25 -80 -10 -16 26 -225 -4 -304 -44 l-50 -26 15 -44 c9 -25 24
-48 34 -51 10 -3 23 -19 30 -35 11 -28 10 -32 -19 -59 -17 -16 -31 -34 -31
-41 0 -6 -29 -41 -65 -78 -60 -60 -65 -69 -65 -109 l0 -43 43 6 c23 3 69 10
102 16 33 5 85 13 115 18 30 4 73 12 95 18 22 6 78 18 125 27 47 9 126 25 175
35 50 11 140 29 200 41 61 11 146 30 189 40 83 21 126 19 126 -6 0 -9 10 -15
25 -15 14 0 25 -6 25 -12 0 -7 14 -34 30 -60 25 -39 35 -48 59 -48 16 0 34 -6
40 -14 12 -15 85 -42 190 -72 l64 -18 -6 -64 c-4 -36 -13 -72 -22 -82 -8 -9
-15 -23 -15 -31 0 -8 6 -5 16 9 8 12 24 22 35 22 29 0 151 36 190 55 35 19
174 121 222 164 l27 25 -32 13 c-31 13 -34 13 -52 -13 -27 -37 -179 -107 -215
-99 -22 5 -34 -2 -66 -35 -21 -22 -43 -40 -48 -40 -5 0 -7 16 -4 36 3 19 1 46
-5 60 -9 18 -9 27 0 36 7 7 12 31 12 55 0 52 -27 223 -40 259 -6 14 -10 91
-10 171 0 123 -4 164 -26 254 -24 104 -26 107 -56 113 -28 5 -30 9 -26 38 3
21 -2 50 -15 78 -15 32 -21 68 -22 127 -1 54 -6 87 -16 99 -15 18 -38 95 -39
132 0 27 -12 27 -110 -2z"/>
<path d="M10308 7509 c-21 -11 -41 -27 -47 -37 -13 -25 4 -62 29 -62 11 0 20
-4 20 -10 0 -12 -33 -30 -56 -30 -10 0 -25 -7 -35 -16 -15 -14 -17 -27 -12
-80 5 -58 4 -67 -17 -89 -39 -42 -54 -33 -46 28 3 28 9 63 13 76 9 36 -14 17
-31 -24 -8 -19 -28 -41 -44 -49 -34 -17 -43 -35 -35 -65 4 -16 -1 -23 -20 -30
-24 -9 -25 -12 -14 -46 9 -30 7 -49 -12 -115 -19 -63 -22 -91 -16 -139 5 -42
4 -61 -4 -61 -23 0 -10 -49 38 -141 64 -124 77 -184 62 -283 -10 -71 -44 -175
-77 -239 l-14 -29 67 5 c38 3 128 12 201 21 74 8 173 15 220 14 48 0 130 7
182 17 52 9 114 19 136 22 36 4 43 9 47 33 3 15 17 41 31 58 20 22 26 41 26
75 0 35 5 49 23 64 13 10 31 43 41 76 11 37 22 57 32 57 11 0 13 -6 9 -21 -6
-17 -3 -20 12 -17 28 5 31 138 4 193 -11 22 -31 87 -46 144 -28 113 -45 145
-84 165 -23 12 -30 11 -64 -11 -24 -15 -46 -41 -60 -71 -26 -55 -65 -102 -84
-102 -8 0 -25 11 -38 25 -42 41 -31 125 16 125 18 0 23 10 33 71 5 26 13 38
27 42 20 5 21 11 18 95 -4 84 -6 92 -32 116 -30 28 -33 62 -4 60 9 -1 17 1 17
3 0 14 -56 92 -65 91 -25 -4 -85 17 -144 49 -39 21 -72 32 -85 29 -11 -3 -34
3 -50 14 -30 18 -32 18 -68 -1z"/>
<path d="M5547 7493 c-4 -3 -7 -56 -7 -117 0 -61 -5 -127 -11 -146 -6 -19 -17
-116 -24 -215 -28 -356 -39 -534 -34 -538 8 -8 665 -47 1137 -68 l274 -12 65
-43 c55 -36 69 -41 86 -32 11 5 51 14 90 19 60 8 74 6 101 -10 17 -10 53 -26
79 -36 37 -14 51 -26 62 -52 8 -18 21 -33 30 -33 17 0 14 12 -13 43 -14 16
-14 22 1 65 25 75 32 132 14 132 -17 0 -27 29 -27 78 0 26 5 35 20 39 19 5 20
14 20 322 l0 316 -35 28 c-19 15 -42 42 -51 59 -16 30 -15 31 13 54 15 13 31
23 36 24 4 0 7 11 7 24 l0 24 -347 6 c-192 4 -420 11 -508 16 -362 21 -667 40
-780 50 -142 12 -189 12 -198 3z"/>
<path d="M3757 7283 c-9 -54 -31 -195 -51 -313 -19 -118 -44 -280 -56 -360
-12 -80 -33 -206 -47 -280 -14 -74 -29 -169 -33 -210 -4 -41 -11 -89 -15 -106
l-7 -31 139 -17 c76 -9 161 -21 188 -27 28 -5 104 -16 170 -23 257 -31 531
-67 547 -72 10 -3 62 -9 115 -14 54 -5 163 -16 243 -24 293 -29 420 -39 425
-35 2 3 9 52 15 110 5 57 14 140 19 184 6 44 10 112 10 150 0 39 7 126 16 195
13 116 37 416 52 656 l6 101 -144 17 c-79 9 -202 21 -274 27 -166 12 -295 26
-365 39 -30 6 -165 23 -300 40 -135 16 -285 36 -335 45 -49 8 -110 15 -135 15
-25 0 -70 7 -100 15 -30 8 -58 15 -61 15 -4 0 -13 -44 -22 -97z"/>
<path d="M13948 7154 c-22 -20 -35 -41 -31 -50 3 -10 -2 -14 -18 -14 -13 0
-49 -7 -79 -16 -30 -8 -111 -27 -180 -40 -69 -13 -139 -29 -156 -34 -17 -6
-42 -10 -57 -10 l-27 0 0 -120 c0 -134 -4 -129 76 -106 27 8 85 22 129 31 44
9 103 22 130 30 101 27 195 44 208 39 8 -3 19 -16 25 -30 7 -13 25 -39 42 -57
17 -17 36 -40 43 -50 16 -23 47 -13 40 12 -3 12 5 26 25 40 38 27 38 26 46 -5
l7 -27 32 31 c18 16 56 38 85 48 55 20 57 21 43 43 -8 12 -15 9 -41 -12 -30
-26 -70 -34 -104 -21 -9 3 -16 10 -16 16 0 11 -53 89 -76 113 -11 11 -25 14
-45 10 -24 -6 -31 -2 -40 19 -10 21 -8 34 9 76 l21 51 -22 34 c-12 19 -24 35
-27 35 -3 0 -22 -16 -42 -36z"/>
<path d="M216 7063 c-3 -21 -6 -60 -6 -87 0 -78 -69 -229 -136 -301 -30 -32
-58 -72 -63 -93 -9 -32 -6 -44 31 -120 52 -104 63 -190 30 -244 -11 -19 -24
-68 -31 -116 l-11 -83 54 -100 c68 -124 80 -160 72 -216 -5 -42 -3 -48 37 -94
47 -54 67 -62 59 -24 -5 28 21 75 42 75 15 0 35 -39 29 -57 -3 -7 -13 -13 -22
-13 -17 0 -17 -3 0 -57 22 -67 25 -123 6 -123 -8 0 -24 11 -37 25 -18 19 -22
31 -17 60 4 26 2 35 -6 32 -18 -6 -35 -75 -35 -142 0 -76 39 -158 78 -163 30
-4 50 -28 50 -60 0 -30 -37 -92 -55 -92 -7 0 -16 -15 -19 -34 -7 -38 1 -86 15
-86 11 0 59 -94 59 -117 1 -33 35 -118 78 -191 23 -41 45 -86 48 -100 4 -15
13 -35 21 -44 13 -15 12 -29 -10 -119 -24 -97 -25 -104 -9 -125 12 -17 27 -23
53 -24 20 0 65 -15 105 -35 38 -19 79 -35 90 -35 26 0 77 -55 106 -114 23 -48
67 -77 124 -82 48 -4 61 -18 70 -71 5 -32 3 -43 -7 -43 -8 0 -5 -6 7 -15 10
-8 31 -15 46 -15 21 0 40 -16 85 -70 32 -39 73 -98 90 -131 31 -56 33 -68 33
-157 0 -54 4 -102 8 -109 7 -12 183 -40 392 -63 58 -6 150 -18 205 -25 65 -9
114 -11 138 -5 47 10 45 9 53 47 6 29 4 32 -22 35 -20 2 -29 8 -28 21 0 9 1
42 2 72 2 48 5 57 25 64 35 14 54 42 66 97 16 78 45 120 97 140 44 17 60 46
31 57 -8 3 -22 36 -32 74 -10 37 -27 81 -36 98 -11 17 -16 39 -13 52 6 23 -11
52 -215 356 -58 86 -124 188 -147 225 -22 37 -75 115 -117 175 -43 59 -77 109
-77 112 0 4 -222 336 -508 760 l-74 110 5 57 c3 31 14 90 25 130 11 40 33 118
47 173 15 55 35 132 45 170 85 318 130 519 119 526 -7 4 -42 13 -78 20 -36 6
-73 15 -82 20 -8 4 -83 26 -165 49 -82 22 -185 51 -229 64 -44 14 -107 32
-140 40 -33 9 -82 23 -110 31 -148 44 -223 65 -228 65 -2 0 -7 -17 -11 -37z"/>
<path d="M13887 6838 c-33 -9 -38 -14 -33 -32 27 -92 36 -135 36 -168 0 -21 2
-38 5 -38 18 0 64 33 79 55 9 14 21 23 25 21 4 -3 16 1 26 8 17 12 17 14 -1
44 -10 18 -25 34 -34 37 -8 3 -23 23 -33 45 -10 22 -22 40 -25 39 -4 -1 -24
-6 -45 -11z"/>
<path d="M13770 6810 c0 -5 -12 -10 -27 -10 -33 -1 -311 -65 -320 -74 -3 -3 0
-36 7 -73 19 -97 24 -231 10 -248 -6 -8 -9 -19 -5 -25 8 -12 118 61 153 102
13 15 26 27 30 26 4 -1 20 4 35 10 16 7 36 12 45 12 16 0 63 16 146 49 28 11
29 12 23 74 -3 34 -13 86 -22 115 -14 47 -18 52 -45 52 -17 0 -30 -4 -30 -10z"/>
<path d="M1231 6553 c-35 -137 -69 -268 -76 -293 -7 -25 -24 -90 -39 -145 -14
-55 -37 -141 -51 -192 -38 -141 -37 -150 51 -278 136 -199 489 -725 499 -743
6 -10 37 -57 70 -105 33 -47 83 -122 110 -166 28 -44 107 -164 176 -268 69
-103 143 -214 164 -246 47 -72 54 -64 56 58 0 50 4 128 7 175 7 81 8 85 36 99
22 10 34 11 48 2 10 -6 24 -11 33 -11 8 0 22 -11 31 -25 9 -14 22 -25 29 -25
18 0 41 39 47 80 17 108 54 307 103 550 31 151 67 338 80 415 13 77 33 185 45
240 11 55 50 253 86 439 71 369 71 350 4 362 -47 8 -133 26 -330 69 -91 20
-199 43 -240 51 -41 8 -79 19 -84 24 -6 6 -24 10 -42 10 -40 0 -241 41 -418
85 -76 19 -147 35 -157 35 -10 0 -19 4 -19 8 0 7 -129 43 -151 42 -3 0 -34
-111 -68 -247z"/>
<path d="M12875 6589 c-16 -5 -119 -27 -227 -49 -109 -22 -217 -44 -240 -49
-24 -5 -81 -17 -128 -26 -47 -9 -112 -23 -145 -30 -33 -8 -78 -16 -100 -20
-162 -25 -232 -34 -247 -35 -15 0 -18 9 -18 45 0 25 -3 45 -6 45 -4 0 -26 -17
-49 -37 -23 -21 -57 -49 -74 -63 l-33 -25 26 -175 c15 -96 31 -197 36 -225 6
-27 17 -102 25 -165 9 -63 20 -119 25 -124 6 -6 10 -29 10 -53 0 -48 -17 -46
140 -19 47 9 118 20 159 26 41 6 77 13 82 15 4 3 43 10 85 15 43 6 81 15 84
20 4 6 45 15 91 20 99 10 242 34 319 55 89 23 192 44 241 50 33 4 54 14 74 35
19 20 39 30 57 30 29 0 88 48 88 71 0 6 16 26 35 44 l36 32 -51 39 c-27 21
-53 46 -56 56 -3 10 -15 18 -28 18 -20 0 -25 7 -30 42 -6 34 -4 45 11 56 15
10 15 16 5 32 -14 23 -6 67 15 88 7 7 13 26 13 41 0 16 7 34 15 41 20 17 10
30 -24 30 -31 0 -47 15 -81 78 -14 25 -31 42 -41 42 -10 0 -23 9 -29 20 -12
22 -20 23 -65 9z"/>
<path d="M8515 6570 c-71 -4 -354 -11 -627 -15 l-498 -8 0 -28 c0 -38 10 -59
27 -59 13 0 14 -10 8 -57 -4 -32 -13 -73 -21 -91 -12 -30 -11 -35 10 -66 13
-19 26 -57 29 -85 3 -28 18 -79 32 -113 15 -35 30 -81 34 -104 4 -22 17 -55
29 -71 16 -22 22 -46 22 -81 0 -28 5 -52 11 -54 5 -2 12 -39 15 -83 3 -44 7
-91 10 -104 l5 -24 367 6 c202 3 448 11 546 18 l179 13 29 -37 c37 -46 48 -47
48 -4 0 37 15 57 42 57 13 0 18 8 18 28 0 16 9 37 20 47 13 12 20 31 20 54 0
25 -6 40 -20 49 -25 15 -26 62 -2 91 12 15 33 23 71 28 55 6 101 38 101 69 0
8 9 28 20 46 31 52 26 85 -20 128 -22 20 -40 44 -40 53 0 10 -4 17 -10 17 -17
0 -50 39 -50 59 0 24 -13 33 -59 40 -28 5 -39 14 -58 50 -25 48 -30 110 -11
141 10 16 9 23 -10 43 -12 13 -22 31 -22 40 0 19 -12 19 -245 7z"/>
<path d="M2757 6111 c-37 -190 -74 -378 -82 -416 -9 -39 -28 -144 -44 -235
-15 -91 -54 -292 -86 -447 -32 -156 -57 -285 -54 -287 8 -8 480 -94 719 -131
129 -20 276 -44 325 -55 98 -20 313 -46 320 -38 9 9 54 321 65 452 6 72 17
154 25 183 8 29 19 99 25 155 12 112 54 415 70 514 16 95 18 90 -59 98 -38 3
-91 10 -118 16 -26 5 -113 17 -191 27 l-144 18 6 40 c4 22 10 78 15 125 5 47
15 109 21 138 7 29 10 55 8 57 -5 6 -212 35 -247 35 -17 0 -31 4 -31 8 0 4
-46 14 -102 21 -57 7 -164 25 -239 40 l-135 28 -67 -346z"/>
<path d="M5456 6403 c-3 -26 -11 -121 -16 -212 -6 -91 -14 -188 -19 -216 -5
-27 -12 -87 -15 -132 l-6 -83 67 0 c38 0 129 -7 203 -15 74 -8 164 -15 199
-15 l64 0 -7 -82 c-4 -46 -9 -129 -13 -184 l-6 -102 189 -6 c104 -3 268 -10
364 -16 96 -5 415 -13 709 -17 l534 -6 -41 55 c-23 30 -42 64 -42 75 0 11 -9
32 -21 47 -16 20 -23 49 -29 122 -5 53 -13 101 -19 107 -6 6 -11 34 -11 62 0
37 -6 60 -25 87 -14 20 -25 49 -25 63 0 15 -5 35 -11 47 -22 41 -59 154 -59
180 0 21 -5 27 -27 30 -18 2 -31 13 -42 35 -11 23 -29 38 -61 50 -25 9 -58 25
-75 34 -24 13 -42 15 -91 9 -33 -4 -71 -13 -84 -20 -19 -10 -29 -9 -64 11 -22
12 -54 32 -71 45 -27 20 -46 22 -205 28 -196 8 -826 42 -1025 56 -71 5 -149 9
-171 10 l-41 0 -7 -47z"/>
<path d="M13133 6398 c-6 -7 -13 -30 -16 -51 -3 -20 -13 -44 -21 -53 -18 -18
-20 -30 -6 -39 15 -9 12 -53 -4 -62 -21 -12 -9 -63 15 -63 11 0 24 -11 30 -24
6 -13 33 -40 60 -61 55 -42 60 -56 25 -79 -14 -9 -33 -32 -42 -51 -9 -20 -32
-48 -51 -62 -18 -14 -41 -41 -50 -60 -16 -34 -16 -34 18 -70 40 -42 107 -73
156 -73 l35 0 -6 -45 c-4 -25 -5 -45 -1 -45 11 0 45 65 45 86 0 12 20 57 44
101 24 44 49 96 54 114 10 38 1 254 -12 266 -4 4 -23 6 -42 4 l-34 -3 0 46 c0
32 4 46 14 46 12 0 26 58 26 105 0 13 -79 45 -110 45 -9 0 -35 9 -58 20 -48
23 -56 24 -69 8z"/>
<path d="M11498 6287 c-46 -27 -101 -70 -140 -110 -48 -51 -70 -67 -91 -67
-15 0 -57 -13 -94 -30 -36 -16 -70 -30 -75 -30 -5 0 -24 11 -41 24 -23 17 -50
25 -95 29 -34 3 -70 11 -78 18 -18 15 -60 14 -164 -6 -41 -7 -108 -19 -148
-25 l-74 -12 6 -42 c3 -22 9 -77 12 -121 4 -44 10 -84 14 -90 4 -5 10 -48 14
-95 7 -97 29 -317 47 -464 l12 -98 47 6 c65 9 95 -5 111 -48 13 -35 14 -36 66
-36 42 0 54 -4 63 -20 11 -21 40 -28 40 -9 0 6 22 9 60 8 50 -2 64 1 83 19 13
12 35 22 50 22 22 0 29 -6 33 -27 5 -21 18 -34 54 -52 56 -27 80 -23 80 14 0
14 7 28 15 31 10 4 15 20 15 48 0 22 5 58 11 79 8 30 15 37 35 37 13 0 27 -7
30 -15 13 -32 23 -13 17 33 -5 44 -2 52 33 100 34 46 42 52 66 47 21 -5 30 -1
45 20 10 14 30 41 44 60 23 30 27 49 39 179 7 80 17 146 22 146 12 0 10 43 -6
108 -8 31 -20 98 -26 147 -15 126 -41 265 -49 265 -4 0 -41 -20 -83 -43z"/>
<path d="M9579 6276 c-2 -2 -98 -9 -214 -16 -379 -23 -421 -27 -397 -35 12 -4
25 -19 29 -34 3 -14 24 -41 45 -60 28 -25 38 -41 38 -64 0 -38 -20 -107 -32
-107 -4 0 -8 -8 -8 -19 0 -24 -42 -69 -72 -75 -102 -21 -101 -21 -111 -51 -9
-25 -7 -31 12 -43 29 -20 30 -101 1 -127 -12 -11 -20 -31 -20 -51 0 -28 -4
-33 -27 -36 -25 -3 -28 -7 -31 -45 -2 -24 -7 -43 -12 -43 -20 0 -27 -56 -13
-113 19 -85 32 -105 135 -202 82 -78 94 -93 98 -129 l5 -41 63 -3 c34 -2 62
-7 62 -12 0 -6 7 -10 15 -10 8 0 15 -6 15 -13 0 -38 -24 -133 -41 -164 -11
-19 -17 -43 -14 -54 11 -35 124 -127 164 -134 34 -6 41 -13 79 -81 43 -77 50
-100 31 -106 -8 -3 -9 -10 -1 -23 5 -11 15 -32 21 -47 11 -29 51 -40 51 -14 0
14 61 66 78 66 5 0 31 -9 57 -21 37 -16 49 -18 55 -8 9 14 2 39 -11 39 -11 0
-1 49 13 67 5 6 28 17 52 24 l43 12 -16 28 c-14 25 -14 29 2 46 11 13 19 46
23 108 6 74 11 94 31 115 13 14 28 41 34 60 7 19 21 46 31 60 16 20 18 33 13
75 -4 27 -12 56 -19 64 -6 8 -11 57 -12 120 -1 137 -20 419 -39 591 -8 74 -15
160 -15 190 0 31 -6 64 -13 75 -7 11 -19 38 -26 60 -7 22 -23 50 -34 62 -12
14 -22 41 -25 73 l-5 50 -42 0 c-23 0 -44 -2 -46 -4z"/>
<path d="M10250 6073 c-63 -7 -158 -17 -210 -21 -79 -6 -102 -12 -138 -35 -34
-22 -50 -26 -77 -21 -34 6 -35 6 -35 -27 0 -19 8 -133 19 -254 31 -342 43
-527 35 -571 -4 -28 -1 -50 9 -71 9 -16 19 -53 23 -81 5 -41 3 -56 -13 -79
-11 -15 -24 -39 -28 -53 -4 -14 -20 -42 -36 -62 -24 -30 -29 -46 -29 -91 l0
-54 43 8 c23 5 66 12 95 16 47 5 55 3 68 -15 15 -22 15 -22 53 18 44 47 62 50
85 15 20 -31 36 -24 36 15 0 24 7 33 40 50 47 24 50 24 50 5 0 -11 11 -15 40
-15 38 0 40 2 40 30 0 33 15 55 78 116 23 23 42 50 42 60 0 47 12 64 43 64 40
0 119 50 110 70 -3 8 -8 35 -10 60 -2 25 -10 99 -18 165 -22 181 -45 417 -45
463 0 22 -4 44 -10 47 -5 3 -10 19 -10 35 0 16 -5 74 -11 130 l-12 100 -56 -1
c-31 -1 -108 -8 -171 -16z"/>
<path d="M4070 5882 c0 -6 -14 -104 -30 -219 -17 -114 -37 -269 -45 -343 -9
-74 -22 -162 -30 -195 -8 -33 -21 -132 -30 -220 -8 -88 -24 -212 -35 -275 -11
-63 -20 -120 -20 -126 0 -11 117 -32 300 -54 290 -34 350 -41 390 -49 25 -5
110 -15 190 -21 148 -11 342 -28 657 -57 98 -9 231 -18 295 -20 l117 -4 5 108
c2 59 9 218 15 353 6 135 16 258 21 274 6 16 10 86 10 155 1 118 11 296 26
454 l7 67 -49 0 c-27 0 -125 7 -219 15 -93 8 -258 22 -365 31 -107 9 -260 22
-340 30 -80 8 -190 19 -245 23 -55 5 -107 12 -115 15 -8 3 -105 17 -215 31
-110 13 -221 27 -247 31 -31 4 -48 3 -48 -4z"/>
<path d="M13021 5806 c-22 -24 -23 -26 -8 -73 26 -85 82 -288 92 -337 6 -31 1
-30 136 -10 l35 5 -15 50 c-8 27 -20 49 -26 49 -23 1 -65 48 -94 107 -17 34
-40 67 -51 73 -38 20 -66 109 -40 125 12 7 13 35 2 35 -5 0 -19 -11 -31 -24z"/>
<path d="M11660 5652 c-13 -126 -15 -136 -50 -190 -38 -58 -77 -88 -101 -80
-8 3 -29 -15 -47 -39 -31 -41 -33 -49 -27 -90 5 -33 3 -48 -7 -54 -21 -14 -48
-10 -48 7 0 24 -23 11 -31 -17 -4 -13 -7 -48 -8 -76 -1 -40 -5 -53 -16 -53
-10 0 -15 -10 -15 -30 0 -25 -4 -30 -35 -36 -33 -6 -35 -9 -35 -45 0 -31 6
-43 30 -61 17 -12 30 -29 30 -39 0 -16 22 -39 152 -165 69 -67 108 -77 149
-38 26 25 32 27 50 15 30 -18 74 2 90 41 10 23 16 28 34 24 14 -4 28 0 35 9 7
8 29 19 49 25 37 10 41 16 41 67 0 12 12 47 25 77 14 31 25 63 25 70 0 8 5 16
11 18 12 4 38 90 48 158 5 36 10 46 28 48 14 2 27 -5 39 -22 27 -43 51 -34 69
26 8 28 15 60 15 70 0 13 8 18 30 18 23 0 30 4 30 20 0 11 14 29 30 42 17 12
30 29 30 38 0 9 7 25 15 36 9 11 14 42 15 77 0 44 3 57 15 57 18 0 87 -34 127
-61 l26 -19 7 30 c9 39 -1 54 -65 96 -48 31 -55 34 -66 20 -6 -9 -16 -16 -22
-16 -6 0 -16 -9 -22 -20 -8 -16 -21 -20 -58 -20 -41 0 -50 -4 -67 -30 -12 -18
-29 -30 -41 -30 -14 0 -34 -16 -55 -45 -51 -67 -64 -61 -79 36 l-13 81 -46 -5
c-25 -4 -84 -13 -131 -21 -115 -21 -110 -22 -110 24 0 21 -5 49 -10 62 -6 13
-14 50 -18 83 -8 60 -8 59 -22 -73z"/>
<path d="M12828 5745 c-65 -13 -122 -26 -128 -30 -14 -9 -220 -44 -319 -54
-46 -5 -86 -13 -90 -19 -3 -5 -28 -13 -56 -17 -54 -7 -208 -36 -214 -41 -1 -1
2 -35 9 -74 l12 -70 36 45 c21 26 46 45 57 45 11 0 30 15 42 32 20 28 28 32
62 29 33 -2 44 3 69 28 17 19 39 31 54 31 31 0 115 -46 128 -69 5 -10 27 -26
50 -36 29 -13 40 -24 38 -37 -2 -15 9 -23 52 -38 35 -12 57 -15 61 -8 3 5 19
8 35 6 24 -2 30 -8 32 -32 2 -19 -2 -32 -12 -38 -9 -5 -16 -22 -16 -37 0 -16
-6 -31 -14 -34 -7 -3 -18 -19 -24 -36 -15 -42 3 -58 75 -66 32 -3 80 -11 107
-16 35 -7 52 -6 56 1 9 15 -13 80 -32 94 -8 6 -22 31 -31 55 -15 36 -16 52 -7
99 5 31 10 57 10 58 0 1 -7 10 -16 19 -13 12 -14 19 -5 28 6 6 11 24 11 39 0
17 5 28 13 28 8 0 24 11 37 25 13 14 27 25 32 25 12 0 10 -22 -6 -39 -7 -9
-18 -31 -24 -49 -10 -30 -9 -35 7 -39 12 -3 21 -17 25 -41 9 -54 8 -62 -9 -62
-8 0 -15 -9 -15 -20 0 -12 5 -17 13 -14 8 3 20 -3 28 -12 11 -14 11 -18 -4
-29 -23 -16 -21 -43 4 -84 20 -33 22 -33 70 -28 l50 6 21 -44 c22 -45 41 -57
51 -32 2 7 28 19 56 26 28 7 53 16 55 20 3 4 8 35 12 69 l7 61 -54 -7 c-30 -4
-74 -7 -99 -7 -43 0 -44 1 -47 33 -2 28 -33 149 -63 247 -5 17 -17 54 -26 83
-11 36 -21 52 -32 51 -9 0 -70 -11 -134 -24z"/>
<path d="M8495 5529 c-44 -4 -257 -10 -473 -15 l-392 -7 6 -36 c8 -41 95 -170
126 -187 12 -7 28 -10 35 -7 39 15 58 -59 23 -90 -11 -9 -20 -26 -20 -37 0
-28 70 -120 96 -126 19 -5 21 -14 28 -126 3 -67 6 -281 6 -476 l0 -355 283 6
c155 4 441 14 634 24 348 17 353 17 368 -3 16 -22 20 -84 5 -84 -10 0 -50 -58
-50 -72 0 -10 42 -10 103 -2 43 6 47 9 66 55 12 26 21 68 21 93 0 39 3 45 23
48 14 2 23 11 25 26 3 16 10 22 28 22 19 0 24 5 24 24 0 13 3 38 6 55 6 30 5
31 -29 31 -19 0 -39 6 -45 13 -19 23 -41 101 -35 125 3 13 2 27 -3 31 -5 3
-20 29 -33 58 -21 46 -28 52 -62 58 -28 5 -56 24 -109 73 -70 65 -72 68 -67
107 3 22 11 41 16 43 6 2 11 15 11 28 0 13 4 24 9 24 6 0 11 17 13 38 4 53
-18 72 -86 72 -59 0 -66 7 -66 62 0 21 -9 39 -27 56 -110 99 -165 158 -179
190 -26 60 -44 154 -33 174 8 14 3 27 -23 58 -32 38 -35 40 -88 38 -30 -1 -91
-5 -135 -9z"/>
<path d="M12330 5485 c0 -37 -5 -62 -15 -71 -8 -9 -15 -24 -15 -34 0 -10 -13
-28 -30 -40 -19 -14 -30 -30 -30 -46 0 -20 -5 -24 -29 -24 -27 0 -30 -3 -46
-70 -17 -69 -18 -70 -50 -70 -24 0 -37 7 -49 25 -22 34 -36 32 -36 -5 0 -41
-36 -150 -72 -224 -17 -34 -31 -80 -33 -108 -4 -53 -23 -77 -61 -78 -11 0 -29
-9 -40 -21 -11 -12 -26 -18 -37 -15 -14 3 -22 -3 -30 -24 -13 -35 -72 -58
-104 -42 -17 9 -24 7 -44 -14 -21 -22 -30 -25 -69 -21 -36 4 -51 12 -74 40
l-30 34 -103 -104 c-68 -69 -103 -111 -103 -126 0 -16 -17 -33 -62 -62 -34
-22 -68 -43 -77 -47 -20 -10 102 1 140 12 15 5 78 14 141 20 62 7 127 19 144
28 22 10 45 13 75 9 48 -7 269 19 489 58 74 13 158 26 185 30 48 5 228 40 365
69 36 8 110 22 165 31 55 9 130 25 166 36 36 10 72 19 81 19 9 0 47 7 86 16
l70 16 -31 54 c-27 47 -34 53 -56 48 -46 -10 -51 -13 -51 -34 0 -11 -7 -20
-15 -20 -8 0 -15 7 -15 15 0 8 -8 15 -17 15 -10 1 -33 21 -51 45 -18 25 -39
45 -47 45 -8 0 -15 9 -15 20 0 33 34 23 86 -25 53 -49 82 -54 62 -11 -6 14
-18 28 -27 31 -18 6 -43 53 -35 67 3 5 14 6 25 3 21 -7 26 13 10 43 -18 34
-24 58 -22 99 2 39 0 43 -26 49 -15 4 -42 17 -60 30 -20 15 -45 24 -68 24 -20
0 -48 6 -63 14 -15 8 -44 17 -65 21 -32 6 -37 12 -43 41 -4 24 0 45 16 75 30
58 21 82 -39 108 -27 11 -56 21 -63 21 -19 0 -38 21 -38 41 0 14 -18 29 -35
29 -2 0 -7 -16 -11 -35 -3 -19 -10 -35 -14 -35 -5 0 -43 18 -84 41 l-76 41 0
-57z"/>
<path d="M5900 5197 c0 -79 -5 -157 -10 -173 -6 -16 -15 -137 -21 -269 -6
-132 -13 -290 -15 -351 l-5 -112 138 -6 c76 -3 215 -11 308 -16 265 -15 1345
-34 1488 -26 l127 8 0 262 c0 143 -3 312 -7 374 -6 107 -7 114 -30 123 -12 4
-23 12 -23 17 0 4 -14 23 -31 42 -41 45 -50 99 -20 129 30 30 27 51 -8 51 -16
0 -34 7 -41 15 -7 8 -19 15 -26 15 -8 0 -14 4 -14 8 0 5 -249 12 -552 16 -304
4 -614 11 -688 16 -74 5 -233 12 -352 15 l-218 7 0 -145z"/>
<path d="M13202 5197 c-23 -7 -34 -18 -38 -36 -3 -14 -14 -46 -26 -71 -27 -59
-35 -177 -13 -204 15 -20 15 -20 29 0 21 27 36 94 36 158 0 62 13 103 41 129
19 18 26 38 12 36 -5 -1 -23 -6 -41 -12z"/>
<path d="M10632 5153 c-30 -4 -33 -7 -27 -26 18 -59 17 -61 -30 -91 -26 -16
-61 -32 -78 -35 -28 -6 -32 -11 -35 -44 -2 -24 -10 -41 -23 -47 -10 -6 -37
-34 -59 -61 -29 -37 -40 -60 -40 -85 l0 -34 -53 0 c-29 0 -57 4 -62 9 -6 5
-20 5 -32 0 -18 -6 -23 -16 -23 -43 0 -49 -33 -59 -66 -20 l-24 29 -29 -31
c-16 -17 -30 -37 -33 -45 -4 -11 -10 -11 -36 0 -18 7 -32 18 -32 24 0 6 -16 7
-42 3 -120 -18 -117 -16 -147 -61 -27 -40 -28 -45 -14 -64 21 -31 14 -41 -42
-60 -54 -19 -53 -15 -39 -108 7 -49 2 -51 -54 -27 -75 32 -87 33 -117 10 -24
-19 -26 -25 -15 -42 8 -13 9 -36 3 -79 -7 -51 -11 -60 -30 -63 -12 -2 -24 -10
-27 -19 -7 -17 -26 -17 264 3 l90 7 0 32 0 33 83 0 c45 1 134 8 197 17 63 9
198 20 300 25 102 5 208 14 235 19 28 5 91 10 140 10 145 2 261 23 336 63 109
58 139 81 139 106 0 16 33 55 107 128 l106 105 -39 28 c-46 34 -104 104 -104
125 0 8 -13 23 -30 33 -28 16 -30 22 -30 73 0 54 -1 55 -40 74 -26 12 -40 26
-40 38 0 33 -29 33 -64 -1 -33 -32 -52 -39 -58 -20 -5 14 -71 15 -76 1 -6 -20
-50 -14 -62 8 -9 16 -21 20 -65 20 -52 0 -54 1 -65 36 -11 33 -43 56 -73 52
-7 0 -27 -3 -45 -5z"/>
<path d="M2465 4598 c-9 -57 -19 -119 -22 -138 -13 -79 -85 -122 -111 -65 -6
14 -20 25 -30 25 -10 0 -22 4 -27 9 -6 5 -19 5 -31 1 -19 -7 -22 -19 -27 -116
-4 -59 -7 -136 -7 -171 0 -42 -6 -72 -16 -88 -10 -15 -14 -36 -11 -52 12 -58
61 -188 74 -196 7 -4 13 -21 13 -37 0 -24 -7 -31 -49 -50 -53 -25 -83 -69 -96
-145 -7 -40 -48 -95 -71 -95 -8 0 -13 -21 -16 -59 -3 -59 -3 -60 26 -65 27 -6
28 -8 23 -48 -6 -47 -27 -68 -68 -68 -18 0 -35 -9 -49 -27 -21 -27 -21 -28 -3
-41 32 -23 280 -171 593 -353 168 -97 331 -194 363 -213 32 -20 66 -36 77 -36
10 0 49 -6 87 -14 37 -8 158 -26 268 -41 110 -14 207 -28 216 -30 13 -5 18 11
28 97 7 57 43 321 82 588 38 267 69 503 69 524 0 21 13 117 30 214 26 157 70
501 70 551 0 16 -13 20 -117 31 -65 7 -145 18 -178 26 -33 7 -190 34 -350 59
-159 25 -382 64 -494 85 -112 22 -209 40 -216 40 -8 0 -19 -37 -30 -102z"/>
<path d="M13150 4649 c-14 -6 -62 -16 -106 -24 -45 -7 -90 -18 -100 -23 -11
-5 -74 -18 -141 -28 -68 -9 -123 -21 -123 -25 0 -3 -30 -10 -67 -14 -38 -4
-104 -15 -148 -26 -44 -10 -127 -25 -185 -34 -58 -8 -154 -24 -215 -34 -118
-21 -416 -61 -452 -61 -21 0 -23 -5 -23 -45 0 -39 -3 -45 -21 -45 -15 0 -26
-13 -42 -50 -20 -47 -24 -50 -50 -46 -29 6 -68 -22 -79 -54 -4 -12 -9 -13 -33
-2 -26 12 -30 11 -56 -14 -18 -17 -29 -38 -29 -54 0 -20 -7 -29 -33 -38 -18
-6 -50 -28 -71 -47 -21 -19 -55 -39 -75 -45 -20 -5 -47 -19 -59 -30 -11 -11
-26 -20 -32 -20 -5 0 -10 -16 -10 -35 0 -32 -3 -35 -40 -45 -37 -10 -40 -13
-40 -45 l0 -35 63 6 c136 12 295 43 320 62 7 5 31 14 55 22 23 7 42 16 42 20
0 3 16 14 37 24 40 19 126 31 309 41 l121 7 36 -32 c20 -18 37 -39 37 -47 0
-13 8 -14 42 -9 49 8 222 25 255 26 23 0 165 -92 321 -208 l82 -61 38 16 c20
9 55 19 77 22 39 6 40 7 57 70 21 79 55 128 136 199 74 66 111 85 172 86 42 1
46 4 68 44 23 42 23 42 3 42 -12 0 -21 5 -21 10 0 6 -16 10 -35 10 -36 0 -42
8 -26 38 4 9 11 32 14 50 6 27 4 32 -13 32 -11 0 -20 6 -20 14 0 11 15 14 61
13 53 -2 63 1 79 23 11 14 20 33 20 42 0 9 14 26 30 38 18 13 30 30 30 43 0
33 -47 98 -65 91 -8 -4 -15 -10 -15 -15 0 -13 -28 -11 -32 2 -2 7 -17 5 -43
-6 -22 -10 -47 -19 -55 -20 -8 -2 -30 -6 -47 -10 -29 -7 -33 -5 -33 14 0 11 4
21 9 21 5 0 42 20 83 45 82 49 102 53 130 28 31 -28 30 -9 -4 65 -34 73 -42
79 -88 61z"/>
<path d="M3852 4278 c-12 -106 -34 -263 -48 -348 -14 -85 -29 -198 -34 -250
-5 -52 -32 -252 -60 -445 -55 -379 -100 -708 -100 -736 0 -9 10 -19 23 -23 34
-8 200 -26 205 -22 2 2 8 37 14 78 5 40 11 74 12 75 1 2 97 -11 212 -27 115
-16 224 -32 243 -35 26 -3 31 -1 23 7 -17 17 -15 53 3 68 16 14 64 11 315 -20
183 -23 470 -49 627 -57 l112 -6 5 24 c3 13 8 76 11 139 6 121 15 219 41 460
9 80 20 215 25 300 5 85 13 218 18 295 5 77 13 191 17 253 5 81 11 115 21 119
9 4 13 28 13 88 l0 82 -117 7 c-65 4 -158 11 -208 16 -49 6 -180 17 -290 26
-295 23 -671 67 -937 109 -53 8 -103 15 -111 15 -10 0 -19 -47 -35 -192z"/>
<path d="M11530 4375 c-8 -9 -30 -15 -59 -16 -25 0 -86 -7 -136 -15 -49 -8
-130 -19 -180 -25 -49 -5 -121 -16 -160 -24 -38 -9 -148 -20 -243 -25 -95 -5
-178 -12 -185 -17 -6 -4 -93 -10 -192 -14 -99 -4 -236 -15 -305 -24 -69 -9
-158 -17 -197 -18 l-73 -2 0 -31 0 -31 -87 -7 c-49 -3 -143 -9 -210 -12 l-123
-7 0 -41 c0 -22 -9 -61 -20 -85 -11 -24 -20 -49 -20 -56 0 -6 -7 -27 -16 -45
-9 -18 -19 -52 -22 -77 -4 -36 -10 -47 -34 -59 -17 -9 -27 -21 -25 -28 3 -8 9
-35 13 -61 6 -41 4 -51 -12 -63 -17 -12 -5 -13 96 -7 63 3 243 17 400 31 157
14 346 29 420 34 166 11 308 25 465 46 66 8 155 18 198 21 l77 6 0 42 c0 42 8
51 63 69 11 3 17 16 17 35 0 24 8 34 50 60 28 17 56 31 63 31 20 0 77 39 77
52 0 7 20 21 45 31 36 15 45 24 45 43 0 15 15 37 41 62 52 46 55 48 62 21 5
-20 8 -19 43 16 27 28 43 36 61 32 20 -4 27 2 45 40 11 24 29 48 39 54 13 7
19 21 19 44 0 38 -18 47 -40 20z"/>
<path d="M5570 4210 l0 -77 93 -7 c264 -19 409 -27 570 -32 l177 -6 0 -62 c0
-33 -4 -122 -9 -196 -5 -74 -13 -202 -16 -285 l-7 -150 46 -38 c39 -32 48 -36
65 -25 15 9 23 9 34 -1 12 -9 16 -9 19 1 7 21 63 -3 64 -27 1 -11 2 -26 3 -32
1 -7 12 -13 25 -13 13 0 37 -7 52 -15 16 -8 45 -15 65 -15 19 0 40 -5 47 -12
9 -9 16 -7 31 6 12 11 21 14 26 7 3 -6 19 -11 35 -11 22 0 29 -5 32 -22 2 -15
10 -23 23 -23 14 0 21 -8 23 -27 4 -33 22 -36 47 -8 13 14 22 17 29 10 5 -5
20 -10 33 -10 12 0 27 -8 32 -18 9 -18 87 -60 95 -51 2 2 16 24 31 48 l28 45
14 -27 c11 -21 21 -27 48 -27 18 0 37 -4 40 -10 3 -5 17 -10 30 -10 13 0 27
-4 30 -10 11 -18 39 -11 60 16 17 21 29 25 75 26 30 1 66 8 79 16 21 14 24 14
33 -1 13 -24 56 -21 77 4 17 21 17 21 66 -21 28 -23 74 -50 103 -60 l53 -19
-5 362 c-4 355 -9 431 -40 592 -8 44 -15 115 -15 157 l-1 77 -202 -6 c-221 -6
-1126 11 -1408 27 -96 5 -276 14 -400 20 -124 6 -249 12 -277 14 l-53 3 0 -77z"/>
<path d="M5536 3999 c-4 -63 -12 -177 -17 -254 -5 -77 -13 -210 -18 -295 -5
-85 -16 -216 -24 -290 -24 -215 -36 -347 -42 -465 -3 -60 -8 -125 -11 -144
l-5 -34 -127 6 c-161 7 -429 31 -642 57 -235 28 -293 30 -298 7 -2 -11 12 -32
38 -56 23 -21 47 -55 54 -77 9 -26 23 -44 44 -54 17 -8 43 -33 59 -56 55 -80
128 -162 163 -180 53 -29 89 -72 126 -152 26 -56 34 -86 34 -131 0 -90 22
-140 93 -209 35 -33 86 -71 114 -86 29 -14 56 -32 60 -39 9 -15 118 -82 149
-91 16 -5 29 6 67 58 26 36 53 80 59 98 17 48 48 98 61 98 7 0 35 11 64 24 48
23 52 23 74 8 23 -16 57 -22 197 -38 61 -7 64 -9 110 -63 26 -31 75 -87 109
-125 37 -39 63 -78 63 -90 0 -12 20 -66 44 -121 24 -55 47 -115 51 -133 4 -21
15 -36 30 -42 13 -5 38 -37 60 -75 46 -82 88 -131 120 -139 35 -9 48 -38 36
-83 -9 -30 -7 -38 6 -48 12 -9 15 -21 9 -53 -5 -37 -3 -44 22 -67 20 -18 33
-43 42 -83 7 -31 17 -65 23 -76 10 -21 135 -80 190 -90 21 -4 40 -13 43 -21
10 -25 73 -46 151 -49 55 -3 78 -8 84 -19 5 -9 25 -25 44 -37 l34 -21 29 21
29 22 -18 36 c-11 20 -19 47 -19 60 0 13 -12 64 -26 114 -24 88 -25 93 -10
162 9 45 32 102 61 156 26 47 54 96 61 111 7 14 25 36 39 49 14 13 25 29 25
36 0 7 30 31 68 55 37 23 81 54 99 70 17 15 90 57 162 94 84 43 154 88 198
126 37 33 87 72 110 87 24 15 43 34 43 43 0 17 209 119 243 119 13 0 17 8 17
38 0 21 6 47 14 58 15 21 25 178 13 190 -3 4 7 33 23 65 23 44 30 72 30 114 0
30 -4 55 -10 55 -5 0 -10 14 -10 31 0 20 -13 49 -34 78 -18 25 -37 64 -41 86
-3 22 -18 55 -32 73 -25 33 -26 38 -36 308 -12 298 -10 292 -69 270 -22 -8
-33 -6 -56 11 -16 12 -49 27 -73 34 -24 7 -66 30 -92 52 -44 36 -49 38 -61 22
-10 -14 -22 -16 -57 -11 -51 7 -45 7 -126 0 -51 -5 -65 -10 -78 -30 -11 -18
-25 -24 -50 -24 -19 0 -35 3 -35 8 0 9 -72 32 -100 32 -12 0 -30 5 -40 10 -16
9 -22 5 -35 -20 -9 -17 -24 -30 -34 -30 -30 0 -111 40 -111 54 0 20 -52 27
-72 9 -9 -8 -29 -13 -45 -11 -22 2 -28 8 -26 24 2 15 -4 24 -18 27 -11 3 -23
14 -26 25 -6 24 -62 36 -70 15 -7 -17 -28 -17 -43 2 -7 8 -29 15 -49 15 -20 0
-49 7 -65 15 -15 8 -41 15 -57 15 -24 0 -29 5 -35 35 -6 33 -24 59 -24 36 0
-15 -33 -14 -48 1 -9 9 -12 9 -12 0 0 -23 -46 -12 -75 18 -16 17 -34 30 -41
30 -28 0 -28 66 3 596 l6 111 -114 6 c-63 4 -157 7 -209 7 -52 0 -138 5 -190
9 -52 5 -149 13 -216 16 l-121 7 -7 -113z"/>
<path d="M8805 4075 c-121 -7 -365 -16 -542 -20 -361 -9 -331 -1 -312 -85 24
-99 31 -221 35 -577 4 -355 6 -372 24 -378 10 -3 27 -1 37 5 13 8 26 9 46 1
27 -10 27 -11 27 -102 l0 -92 368 7 c202 3 395 9 430 12 61 6 62 7 62 36 0 16
-6 41 -14 56 -24 47 -17 252 8 252 7 0 21 7 32 15 15 12 16 16 6 23 -20 13 51
122 79 122 19 0 20 4 15 35 -5 26 -1 46 19 85 14 27 32 50 40 50 10 0 15 10
15 33 0 27 5 35 30 44 34 13 36 28 15 88 -19 52 -20 48 19 69 28 15 34 25 38
61 3 23 12 56 21 73 l15 31 -89 -6 c-65 -4 -89 -3 -89 6 0 21 40 92 55 98 16
5 19 30 9 57 -7 19 -69 19 -399 1z"/>
<path d="M11630 3878 c-117 -8 -130 -11 -205 -48 -44 -22 -86 -40 -93 -40 -6
0 -12 -4 -12 -9 0 -5 -13 -12 -30 -16 -16 -4 -30 -13 -30 -20 0 -8 -11 -25
-25 -39 -14 -14 -25 -31 -25 -39 0 -15 82 -59 125 -67 24 -4 38 -19 78 -88 42
-71 55 -86 95 -104 26 -12 65 -40 88 -62 23 -23 53 -49 68 -59 14 -10 32 -33
40 -50 14 -36 45 -60 89 -71 23 -5 35 -21 63 -79 18 -39 34 -77 34 -84 0 -7 7
-13 15 -13 23 0 49 -30 69 -80 28 -70 31 -75 58 -78 19 -2 40 10 82 49 53 49
57 55 51 86 -5 30 -4 33 18 33 16 0 48 24 100 77 43 42 77 80 77 84 0 17 53
69 71 69 10 0 19 7 19 15 0 8 9 23 20 32 15 13 20 30 20 65 0 60 39 145 90
195 l37 37 -101 74 c-56 41 -138 99 -183 129 l-82 54 -113 -11 c-62 -7 -137
-14 -165 -17 -46 -5 -53 -3 -53 12 0 10 -14 31 -32 47 -36 32 -38 32 -258 16z"/>
<path d="M11165 3739 c-49 -9 -170 -24 -270 -34 -27 -3 -114 -13 -192 -22
l-143 -17 0 -38 c0 -21 5 -38 10 -38 6 0 10 -8 10 -17 0 -10 10 -43 21 -73 12
-30 29 -89 39 -130 17 -75 30 -122 75 -275 13 -44 26 -96 30 -115 9 -45 50
-133 70 -150 8 -7 15 -25 15 -40 0 -16 7 -30 15 -34 19 -7 19 -45 1 -71 -21
-31 -26 -122 -9 -173 10 -27 14 -65 11 -102 -3 -42 0 -61 8 -64 7 -3 18 -22
23 -43 6 -21 23 -53 39 -72 l28 -34 200 12 c109 6 269 17 354 23 85 6 178 11
205 12 49 1 50 1 53 -31 2 -21 9 -33 18 -33 16 0 20 75 4 85 -5 3 -10 19 -10
35 0 42 28 54 91 41 28 -6 61 -11 75 -11 24 0 25 2 19 43 -4 26 -1 66 8 102 9
33 18 84 22 112 4 29 11 56 16 59 6 3 7 14 4 24 -3 11 8 38 30 71 19 29 35 57
35 61 0 5 -15 8 -32 8 -39 1 -68 20 -68 46 0 10 -9 38 -20 62 -15 33 -26 44
-50 48 -18 4 -30 13 -30 23 0 9 -13 44 -30 79 -25 54 -36 66 -73 82 -49 22
-71 43 -86 82 -6 15 -28 38 -49 52 -21 13 -50 38 -64 54 -14 17 -43 39 -65 51
-44 22 -94 79 -127 144 -19 38 -25 42 -63 45 -24 2 -43 7 -43 13 0 5 -16 17
-35 26 -20 10 -38 27 -41 39 -6 22 20 74 37 74 5 0 9 5 9 10 0 11 -5 11 -75
-1z"/>
<path d="M10400 3649 c-41 -4 -145 -12 -230 -18 -85 -6 -198 -15 -250 -21 -52
-5 -99 -10 -104 -10 -5 0 -3 -7 4 -15 10 -12 10 -118 0 -528 -11 -458 -10
-525 4 -632 9 -65 16 -138 16 -161 0 -24 4 -54 9 -68 6 -13 13 -70 17 -124 l7
-100 28 -4 c16 -3 29 -4 29 -4 0 1 9 26 19 56 25 75 46 74 88 -5 39 -71 39
-72 12 -80 -11 -4 -18 -9 -15 -12 3 -3 30 4 61 17 l55 22 0 58 c0 54 -2 59
-36 85 -30 23 -35 32 -32 63 l3 37 125 12 c133 12 347 37 468 53 40 6 98 10
128 10 60 0 71 16 34 47 -17 15 -19 25 -14 83 5 48 2 75 -10 104 -18 44 -13
136 10 173 18 29 18 53 -1 53 -10 0 -15 10 -15 28 0 15 -8 39 -17 52 -29 41
-59 112 -72 170 -7 30 -21 82 -31 115 -11 33 -29 98 -40 145 -28 110 -88 310
-101 332 -5 10 -9 31 -9 48 0 34 0 34 -140 19z"/>
<path d="M9615 3585 c-77 -7 -202 -16 -277 -20 l-138 -8 0 -28 c0 -22 -5 -29
-18 -29 -25 0 -57 -71 -57 -124 0 -34 -4 -41 -25 -46 -32 -8 -68 -70 -62 -108
3 -24 -1 -31 -26 -41 -23 -10 -31 -20 -35 -49 -7 -55 0 -167 12 -190 17 -33
14 -109 -5 -116 -13 -5 -15 -15 -10 -49 4 -23 14 -55 22 -71 7 -16 14 -38 14
-48 0 -10 7 -21 15 -24 17 -7 22 -84 5 -84 -5 0 -7 -7 -4 -15 3 -8 -19 -54
-52 -105 -58 -91 -79 -150 -91 -249 l-6 -53 124 7 c310 17 435 21 443 14 5 -4
4 -27 -3 -53 -16 -66 -14 -77 24 -119 19 -21 35 -48 35 -61 0 -12 5 -27 12
-34 9 -9 17 -4 33 20 18 26 29 32 62 34 23 1 57 8 77 15 27 10 41 10 61 1 14
-7 44 -12 67 -12 l41 0 -7 116 c-4 63 -11 126 -16 140 -6 14 -10 43 -10 64 0
21 -7 94 -16 162 -15 110 -15 175 -4 629 12 527 11 551 -28 548 -9 -1 -80 -7
-157 -14z"/>
<path d="M8795 2820 c-60 -4 -237 -8 -392 -9 l-282 -1 4 -67 c3 -38 7 -117 9
-176 4 -96 8 -113 29 -141 14 -17 28 -50 32 -73 4 -24 21 -62 41 -87 19 -25
34 -54 34 -65 0 -11 5 -23 10 -26 6 -3 10 -38 10 -76 0 -52 -6 -81 -23 -117
-18 -37 -24 -67 -26 -142 -2 -56 -8 -105 -17 -122 -8 -15 -14 -38 -14 -52 0
-23 2 -24 33 -16 75 19 162 21 208 5 24 -9 69 -25 99 -36 61 -22 205 -35 215
-19 3 5 1 10 -6 10 -12 0 -38 29 -39 42 0 4 14 15 31 24 28 14 33 14 47 1 11
-11 21 -13 38 -6 36 13 73 -5 80 -40 5 -25 12 -30 52 -38 56 -10 74 -33 47
-62 -10 -12 -16 -23 -14 -25 3 -3 36 -19 74 -36 78 -35 116 -34 133 5 8 17 20
25 36 25 13 0 26 7 30 15 9 25 34 17 51 -15 9 -16 20 -30 25 -30 12 0 31 36
23 43 -3 4 -1 12 5 20 6 7 9 23 5 35 -4 17 -1 22 15 22 12 0 24 5 27 10 11 18
23 11 34 -20 6 -19 17 -30 29 -30 30 0 89 -28 104 -48 7 -10 30 -21 50 -25 31
-5 40 -2 52 15 14 20 12 23 -21 49 -19 16 -52 31 -72 34 -57 9 -123 45 -116
64 4 9 9 28 12 44 4 22 11 27 34 27 17 0 34 8 43 21 13 20 13 24 -7 50 -25 35
-40 33 -47 -7 -6 -35 -28 -41 -69 -19 -40 20 -39 38 3 64 22 14 33 28 31 39
-2 9 -4 29 -4 43 -1 15 -15 42 -31 60 -17 19 -33 44 -36 57 -6 20 1 76 12 105
4 12 -40 11 -418 -8 l-148 -7 0 40 c0 102 30 189 103 301 35 53 46 76 38 84
-16 16 -13 37 4 37 22 0 19 43 -4 57 -11 7 -20 20 -20 30 1 10 -6 43 -15 73
-9 30 -16 65 -16 78 0 17 -5 22 -22 20 -13 -1 -72 -5 -133 -8z"/>
<path d="M1530 2475 c-21 -22 -32 -26 -80 -24 -40 1 -67 -4 -97 -19 -23 -12
-52 -21 -65 -20 -29 2 -86 -30 -93 -54 -3 -9 -22 -31 -42 -49 -35 -30 -39 -31
-101 -26 -52 5 -68 3 -87 -11 l-23 -17 28 -40 c50 -73 72 -126 68 -162 -4 -30
0 -37 24 -49 21 -11 27 -20 23 -34 -3 -11 5 -41 20 -71 28 -55 24 -69 -20 -69
-25 0 -125 46 -125 57 0 5 7 19 16 32 14 19 14 25 3 32 -21 13 -86 11 -101 -4
-7 -7 -31 -13 -53 -13 -57 0 -115 -13 -115 -25 0 -6 14 -24 30 -39 30 -28 30
-29 18 -80 l-12 -52 35 -29 c25 -21 45 -29 74 -29 22 0 54 -9 72 -20 29 -17
38 -18 87 -8 67 14 88 4 67 -35 -7 -13 -18 -47 -24 -77 -15 -66 -48 -92 -95
-74 -24 9 -33 8 -51 -8 -34 -26 -69 -23 -81 7 -14 36 -36 31 -84 -18 -22 -24
-62 -59 -88 -78 -35 -26 -47 -42 -52 -69 -7 -45 2 -80 19 -74 7 3 16 1 19 -4
7 -12 -17 -62 -35 -73 -10 -6 -8 -18 9 -52 12 -24 22 -53 22 -65 0 -11 7 -23
16 -26 27 -10 99 -7 112 6 14 14 18 4 26 -63 5 -41 3 -47 -15 -52 -17 -5 -20
-11 -14 -36 3 -17 1 -39 -5 -52 -11 -20 -11 -21 11 -14 59 18 92 18 106 -1 8
-10 21 -19 31 -19 11 0 20 -12 26 -37 11 -45 23 -49 28 -10 4 35 41 39 46 4 3
-16 9 -21 20 -18 79 23 92 14 49 -33 -13 -15 -35 -52 -48 -84 -21 -51 -30 -62
-66 -78 -29 -12 -44 -26 -49 -43 -4 -18 -12 -25 -28 -24 -38 3 -120 -24 -148
-50 -25 -23 -30 -24 -58 -12 -38 16 -96 0 -149 -39 -30 -22 -43 -25 -100 -24
-70 3 -121 -11 -121 -32 0 -18 22 -24 42 -11 12 7 30 7 63 -2 42 -11 49 -10
72 7 16 14 34 18 52 15 19 -4 32 0 45 15 20 22 46 28 46 11 0 -16 72 -11 115
9 32 14 52 16 95 11 44 -6 57 -4 67 9 9 13 8 18 -4 25 -25 14 30 43 106 56 36
6 68 15 71 20 3 4 50 32 105 61 55 29 119 69 143 88 49 41 56 75 17 85 -14 4
-25 13 -25 21 0 22 35 54 67 60 44 10 57 19 78 62 24 48 80 110 117 129 38 19
88 18 104 -4 21 -26 16 -42 -11 -42 -14 0 -25 4 -25 9 0 5 -17 2 -38 -7 -29
-12 -38 -21 -34 -34 2 -10 -10 -39 -27 -64 -38 -57 -39 -68 -6 -62 42 9 26
-26 -18 -37 -40 -10 -35 -35 8 -35 37 0 81 26 133 79 23 24 37 31 50 25 9 -4
28 -7 42 -7 14 1 28 -4 32 -10 4 -7 8 15 8 48 l0 60 45 18 c24 10 52 17 62 15
10 -2 29 -24 43 -51 14 -26 32 -47 40 -47 8 0 35 -14 60 -30 38 -25 55 -30
110 -30 48 0 79 -7 117 -24 61 -29 78 -32 116 -21 34 9 42 3 28 -24 -10 -19
-6 -23 47 -50 32 -16 78 -49 103 -74 25 -25 60 -52 77 -61 23 -12 29 -20 25
-37 -3 -11 -2 -24 3 -28 18 -12 54 -70 54 -86 0 -8 9 -23 21 -33 11 -9 34 -41
50 -69 31 -54 73 -79 88 -54 11 18 41 2 41 -23 0 -12 9 -27 20 -34 14 -8 20
-23 20 -46 0 -19 9 -46 22 -62 12 -16 23 -31 25 -33 2 -3 9 4 17 14 12 16 16
17 30 6 14 -12 16 -10 16 17 0 17 -5 43 -10 58 -14 36 -6 42 29 21 16 -9 35
-17 43 -17 8 0 22 -17 32 -37 17 -36 19 -37 32 -18 25 34 34 85 23 134 -13 56
-22 68 -62 76 -58 12 -112 42 -127 72 -8 15 -28 44 -44 63 -15 20 -47 67 -71
105 -23 39 -54 76 -68 83 -15 7 -31 22 -37 32 -6 11 -20 30 -33 44 -12 13 -29
34 -37 46 -15 22 -17 22 -47 7 -31 -16 -43 -35 -43 -66 0 -9 -14 -23 -32 -31
-18 -7 -36 -15 -40 -17 -4 -3 -10 6 -13 20 -4 13 -33 50 -66 83 -32 32 -59 66
-59 76 0 19 -34 25 -45 8 -7 -11 -54 -13 -79 -4 -14 6 -16 77 -16 703 l0 696
-65 35 c-56 29 -69 32 -85 22 -26 -16 -45 -15 -83 4 -17 10 -44 17 -59 16 -16
0 -50 14 -79 34 -42 28 -60 34 -103 34 -61 0 -93 19 -98 58 -3 30 -38 43 -62
23 -15 -13 -39 8 -34 29 3 11 -66 69 -83 70 -3 0 -16 -11 -29 -25z"/>
<path d="M11803 2323 c-15 -6 -17 -39 -3 -48 6 -3 10 -31 10 -61 l0 -55 -32 3
c-29 3 -33 7 -36 37 l-3 33 -47 -6 c-72 -9 -630 -45 -712 -46 -54 0 -56 1 -80
40 -24 39 -26 40 -79 40 -50 0 -129 -8 -381 -40 -47 -6 -142 -16 -212 -22
-124 -11 -128 -13 -128 -35 0 -15 12 -30 35 -45 34 -23 35 -24 35 -91 l0 -67
28 6 c15 4 52 14 82 24 137 44 299 28 416 -42 30 -18 68 -39 82 -47 44 -22 62
-43 62 -68 0 -20 3 -22 19 -13 11 5 34 10 51 10 39 0 83 23 139 71 24 22 48
39 52 39 5 0 9 9 9 20 0 19 48 40 94 40 33 0 145 -59 162 -85 9 -14 27 -28 39
-31 15 -4 25 -15 28 -34 4 -18 16 -32 36 -41 16 -7 36 -25 45 -39 11 -20 29
-30 71 -39 45 -10 58 -18 67 -39 7 -15 23 -39 36 -54 24 -26 24 -30 18 -130
-11 -158 -8 -213 16 -266 l21 -47 9 34 c9 33 4 43 -26 54 -20 7 7 27 35 27 37
0 69 -16 69 -34 0 -16 -46 -105 -66 -127 -12 -13 -9 -20 20 -50 18 -18 46 -54
62 -79 70 -109 94 -128 94 -74 0 28 28 44 41 23 5 -8 9 -31 9 -51 0 -46 18
-86 41 -93 25 -8 58 -57 71 -103 6 -20 18 -49 28 -63 15 -21 25 -24 55 -21 19
2 48 -1 63 -7 38 -17 112 -131 112 -175 0 -19 7 -42 16 -51 15 -14 19 -14 51
5 19 11 47 20 63 20 61 0 138 68 118 104 -13 24 0 94 22 116 18 18 18 30 9
182 -7 126 -15 176 -31 218 -19 48 -50 104 -68 120 -3 3 -25 45 -50 95 -25 49
-57 103 -71 120 -27 32 -69 126 -69 156 0 10 4 21 10 24 16 10 -11 50 -104
160 -47 55 -108 141 -135 190 -50 91 -120 262 -142 346 l-12 46 -61 6 c-34 3
-68 8 -76 11 -8 2 -21 2 -27 -1z"/>
<path d="M3724 1225 c-14 -14 -24 -31 -21 -38 2 -7 25 -21 51 -32 55 -23 76
-15 90 33 14 49 3 62 -49 62 -36 0 -52 -6 -71 -25z"/>
<path d="M3574 1162 c-16 -10 -36 -52 -26 -52 9 0 33 25 46 48 8 13 -3 16 -20
4z"/>
<path d="M4253 1047 c-24 -11 -43 -26 -42 -31 0 -6 10 -27 23 -46 18 -27 30
-35 57 -37 19 -1 51 -5 72 -9 40 -7 49 4 18 23 -10 6 -32 37 -50 67 -17 31
-32 56 -34 55 -1 0 -21 -10 -44 -22z"/>
<path d="M4537 875 c-4 -9 15 -16 65 -24 61 -10 74 -9 95 4 14 9 23 18 21 20
-2 2 -43 6 -90 9 -65 3 -88 1 -91 -9z"/>
<path d="M4736 814 c-7 -19 -4 -26 48 -86 32 -38 47 -48 71 -48 40 1 99 31
103 52 4 21 -64 58 -105 58 -15 0 -43 9 -61 20 -39 24 -48 25 -56 4z"/>
<path d="M4625 760 c17 -34 19 -34 46 -20 29 16 8 50 -32 50 l-30 0 16 -30z"/>
<path d="M5004 546 c-3 -8 2 -29 12 -45 l18 -30 -42 -41 c-45 -44 -50 -61 -28
-79 19 -16 41 -104 41 -165 0 -45 3 -52 34 -73 37 -25 55 -19 71 23 12 30 76
78 109 80 35 2 100 35 125 63 11 12 17 22 15 24 -2 2 -17 11 -32 20 -15 10
-39 43 -54 73 -22 47 -33 58 -77 78 -54 25 -166 77 -178 84 -5 2 -11 -3 -14
-12z"/>
</g>
</svg>
